<?xml version="1.0" encoding="iso-8859-1"?>
<!-- Generator: Adobe Illustrator 19.0.0, SVG Export Plug-In . SVG Version: 6.00 Build 0)  -->
<svg version="1.1" id="Layer_1" xmlns="http://www.w3.org/2000/svg" xmlns:xlink="http://www.w3.org/1999/xlink" x="0px" y="0px"
	 viewBox="0 0 491.52 491.52" style="enable-background:new 0 0 491.52 491.52;" xml:space="preserve">
<g>
	<g>
		<path d="M471.04,358.4V30.72H20.48V358.4H0v55.44l46.96,46.96h397.6l46.96-46.96V358.4H471.04z M40.96,51.2h409.6v307.2H40.96
			V51.2z M471.04,405.36l-34.96,34.96H55.44l-34.96-34.96v-26.48h450.56V405.36z"/>
	</g>
</g>
<g>
	<g>
		<rect x="194.56" y="399.36" width="20.48" height="20.48"/>
	</g>
</g>
<g>
	<g>
		<rect x="235.52" y="399.36" width="20.48" height="20.48"/>
	</g>
</g>
<g>
	<g>
		<rect x="276.48" y="399.36" width="20.48" height="20.48"/>
	</g>
</g>
<g>
	<g>
		<path d="M358.4,174.08V153.6h-30.72v-30.72h-30.72V92.16h-20.48v30.72H256V92.16h-20.48v30.72h-20.48V92.16h-20.48v30.72h-30.72
			v30.72h-30.72v20.48h30.72v20.48h-30.72v20.48h30.72v20.48h-30.72V256h30.72v30.72h30.72v30.72h20.48v-30.72h20.48v30.72H256
			v-30.72h20.48v30.72h20.48v-30.72h30.72V256h30.72v-20.48h-30.72v-20.48h30.72v-20.48h-30.72v-20.48H358.4z M307.2,266.24H184.32
			V143.36H307.2V266.24z"/>
	</g>
</g>
<g>
</g>
<g>
</g>
<g>
</g>
<g>
</g>
<g>
</g>
<g>
</g>
<g>
</g>
<g>
</g>
<g>
</g>
<g>
</g>
<g>
</g>
<g>
</g>
<g>
</g>
<g>
</g>
<g>
</g>
</svg>
