<?xml version="1.0" encoding="iso-8859-1"?>
<!-- Generator: Adobe Illustrator 19.0.0, SVG Export Plug-In . SVG Version: 6.00 Build 0)  -->
<svg version="1.1" id="Layer_1" xmlns="http://www.w3.org/2000/svg" xmlns:xlink="http://www.w3.org/1999/xlink" x="0px" y="0px"
	 viewBox="0 0 512 512" style="enable-background:new 0 0 512 512;" xml:space="preserve">
<g transform="translate(1 1)">
	<g>
		<g>
			<path d="M447,325.565V41.667c0-14.507-11.093-25.6-25.6-25.6H310.467C310.467,6.68,302.787-1,293.4-1H173.933
				c-9.387,0-17.067,7.68-17.067,17.067H45.933c-14.507,0-25.6,11.093-25.6,25.6V485.4c0,14.507,11.093,25.6,25.6,25.6h341.333
				c56.32,0,102.4-46.08,102.4-102.4C489.667,374.526,472.796,344.205,447,325.565z M421.4,33.133c5.12,0,8.533,3.413,8.533,8.533
				v273.909c-5.452-2.52-11.156-4.578-17.067-6.114V67.267c0-9.387-7.68-17.067-17.067-17.067h-85.333V33.133H421.4z
				 M284.917,411.661c0.009,0.288,0.022,0.574,0.033,0.862c0.029,0.769,0.067,1.535,0.113,2.299
				c0.016,0.265,0.032,0.529,0.051,0.793c0.065,0.95,0.142,1.896,0.233,2.839c0.004,0.037,0.006,0.074,0.01,0.111
				c1.193,12.209,4.55,23.808,9.685,34.403c1.088,2.324,2.242,4.608,3.478,6.832H71.533V67.267h85.333
				c0,9.387,7.68,17.067,17.067,17.067H293.4c9.387,0,17.067-7.68,17.067-17.067H395.8V306.2c-2.56,0-5.973,0-8.533,0
				c-56.32,0-102.4,46.08-102.4,102.4C284.867,409.624,284.886,410.644,284.917,411.661z M173.933,16.067H293.4V24.6v34.133v8.533
				H173.933v-8.533V24.6V16.067z M45.933,493.933c-5.12,0-8.533-3.413-8.533-8.533V41.667c0-5.12,3.413-8.533,8.533-8.533h110.933
				V50.2H71.533c-9.387,0-17.067,7.68-17.067,17.067V459.8c0,9.387,7.68,17.067,17.067,17.067h239.58
				c5.823,6.485,12.456,12.227,19.736,17.067H45.933z M387.267,493.933c-40.953,0-75.402-29.241-83.518-67.874
				c-0.073-0.352-0.138-0.706-0.207-1.059c-0.178-0.903-0.341-1.811-0.49-2.723c-0.086-0.53-0.166-1.061-0.242-1.593
				c-0.112-0.779-0.21-1.561-0.3-2.346c-0.065-0.567-0.13-1.135-0.184-1.703c-0.079-0.836-0.139-1.677-0.193-2.519
				c-0.032-0.493-0.073-0.986-0.096-1.479c-0.063-1.338-0.103-2.682-0.103-4.036c0-46.933,38.4-85.333,85.333-85.333
				c0.759,0,1.51,0.038,2.264,0.058c4.365,0.199,8.731,0.921,13.096,1.649c0.787,0.263,1.572,0.347,2.334,0.311
				c10.142,2.302,20.035,6.533,29.239,12.489c0.523,0.349,1.088,0.608,1.669,0.814c22.154,15.455,36.731,41.107,36.731,70.012
				C472.6,455.533,434.2,493.933,387.267,493.933z"/>
			<path d="M438.467,400.067H395.8V357.4c0-5.12-3.413-8.533-8.533-8.533s-8.533,3.413-8.533,8.533v51.2
				c0,5.12,3.413,8.533,8.533,8.533h51.2c5.12,0,8.533-3.413,8.533-8.533S443.587,400.067,438.467,400.067z"/>
			<path d="M334.979,255h13.034c12.8,0,22.187-9.387,23.04-22.187v-33.28c0-12.8-10.24-22.187-22.187-22.187h-18.176l-33.024-46.08
				c-5.12-7.68-13.653-11.947-23.04-11.947h-36.925c-1.169-0.55-2.525-0.853-4.035-0.853s-2.865,0.304-4.035,0.853h-36.925
				c-9.387,0-17.92,4.267-23.04,11.947l-33.024,46.08H119.32c-12.8,0-22.187,10.24-22.187,22.187v33.28
				c0,12.8,9.387,22.187,22.187,22.187h13.034c3.814,14.679,17.216,25.6,33.046,25.6c15.829,0,29.232-10.921,33.046-25.6h70.442
				c3.814,14.679,17.216,25.6,33.046,25.6C317.763,280.6,331.165,269.679,334.979,255z M283.16,139.8l26.7,37.547H242.2v-41.813
				h31.573C278.04,135.533,281.453,137.24,283.16,139.8z M182.467,139.8c2.56-2.56,5.973-4.267,9.387-4.267h33.28v41.813h-68.532
				L182.467,139.8z M165.4,263.533c-9.387,0-17.067-7.68-17.067-17.067s7.68-17.067,17.067-17.067
				c9.387,0,17.067,7.68,17.067,17.067S174.787,263.533,165.4,263.533z M166.253,212.333c-0.156,0-0.309,0.008-0.464,0.01
				c-0.13-0.001-0.258-0.01-0.389-0.01c-15.83,0-29.232,10.921-33.046,25.6H119.32c-2.56,0-5.12-2.56-5.12-5.12v-33.28
				c0-2.56,2.56-5.12,5.12-5.12h16.642c1.132,0.538,2.405,0.853,3.838,0.853h187.733c1.433,0,2.706-0.315,3.838-0.853h17.495
				c2.56,0,5.12,2.56,5.12,5.12v33.28c0,2.56-2.56,5.12-5.12,5.12h-13.653c-4.267-14.507-15.36-25.6-31.573-25.6
				c-0.311,0-0.62,0.012-0.929,0.02c-0.259-0.006-0.517-0.02-0.778-0.02c-15.83,0-29.232,10.921-33.046,25.6h-69.354
				C195.267,223.427,182.467,212.333,166.253,212.333z M301.933,263.533c-9.387,0-17.067-7.68-17.067-17.067
				s7.68-17.067,17.067-17.067S319,237.08,319,246.467S311.32,263.533,301.933,263.533z"/>
			<path d="M233.667,323.267h-128c-5.12,0-8.533,3.413-8.533,8.533c0,5.12,3.413,8.533,8.533,8.533h128
				c5.12,0,8.533-3.413,8.533-8.533C242.2,326.68,238.787,323.267,233.667,323.267z"/>
			<path d="M233.667,365.933h-128c-5.12,0-8.533,3.413-8.533,8.533s3.413,8.533,8.533,8.533h128c5.12,0,8.533-3.413,8.533-8.533
				S238.787,365.933,233.667,365.933z"/>
			<path d="M233.667,408.6h-128c-5.12,0-8.533,3.413-8.533,8.533s3.413,8.533,8.533,8.533h128c5.12,0,8.533-3.413,8.533-8.533
				S238.787,408.6,233.667,408.6z"/>
		</g>
	</g>
</g>
<g>
</g>
<g>
</g>
<g>
</g>
<g>
</g>
<g>
</g>
<g>
</g>
<g>
</g>
<g>
</g>
<g>
</g>
<g>
</g>
<g>
</g>
<g>
</g>
<g>
</g>
<g>
</g>
<g>
</g>
</svg>
